# xmcd
#
# Track frame offsets: 
#        150
#        10148
#        20384
#        36732
#        57921
#        67810
#        78749
#        96816
#        103637
#        117553
#        128615
#        133120
#        144351
#        151998
#
# Disc length: 2195 seconds
#
# Revision: 0
# Processed by: cddbd v1.5.2PL0 Copyright (c) Steve Scherf et al.
# Submitted via: ExactAudioCopy v0.99pb4
#
DISCID=bb08910e
DTITLE=Goldust - Axis
DYEAR=2008
DGENRE=Hardcore
TTITLE0=In Obedience
TTITLE1=Kenosis
TTITLE2=Tempus Fugit
TTITLE3=Hybris
TTITLE4=Zephyr
TTITLE5=Sunfall
TTITLE6=Thorn
TTITLE7=Stillwater
TTITLE8=Axis
TTITLE9=Speaking Tounges
TTITLE10=Failed
TTITLE11=Hellsent
TTITLE12=Burn Cold
TTITLE13=Snakepit
EXTD=
EXTT0=
EXTT1=
EXTT2=
EXTT3=
EXTT4=
EXTT5=
EXTT6=
EXTT7=
EXTT8=
EXTT9=
EXTT10=
EXTT11=
EXTT12=
EXTT13=
PLAYORDER=
